# xmcd
#
# Track frame offsets:
# 150
# 13716
# 29514
# 70237
#
# Disc length: 1680 seconds
#
#
# Revision: 2
# Processed by: cddbd v1.5PL3 Copyright (c) Steve Scherf et al.
# Submitted via: FreeRIP 2.11 
#
DISCID=2e068e04
DTITLE=Faith Hill - The Way You Love Me
DYEAR=2000
DGENRE=Country
TTITLE0=The Way You Love Me (Love To Infinity Radio Edit)
TTITLE1=The Way You Love Me (Radio Remix)
TTITLE2=The Way You Love Me (Love To Infinity Master Mix)
TTITLE3=The Way You Love Me (Video)
EXTD=
EXTT0=
EXTT1=
EXTT2=
EXTT3=
PLAYORDER=
